<?xml version="1.0" encoding="utf-8"?>
<!-- Generator: Adobe Illustrator 22.0.1, SVG Export Plug-In . SVG Version: 6.00 Build 0)  -->
<svg version="1.1" id="Layer_1" xmlns="http://www.w3.org/2000/svg" xmlns:xlink="http://www.w3.org/1999/xlink" x="0px" y="0px"
	 viewBox="0 0 129.4 98.3" style="enable-background:new 0 0 129.4 98.3;" xml:space="preserve">
<style type="text/css">
	.st0{fill:#EA81BD;}
	.st1{fill:#D363A9;}
	.st2{fill:#33363A;}
	.st3{fill:#9E3256;}
	.st4{fill:#FFCAE8;}
	.st5{fill:#EFA3CC;}
	.st6{fill:#14A594;}
	.st7{fill:#FFFFFF;}
</style>
<g>
	<g>
		<g>
			<g>
				<path class="st0" d="M29.9,64.2c0,3.2-6.4,5.8-14.2,5.8c-7.8,0-14.2-2.6-14.2-5.8S14,51.6,21.8,51.6
					C29.6,51.6,29.9,61,29.9,64.2z"/>
			</g>
			<g>
				<path class="st1" d="M29.9,64.2c0,3.2-6.4,5.8-14.2,5.8c-7.8,0-14.2-2.6-14.2-5.8s13.1-1.9,21-1.9C30.3,62.4,29.9,61,29.9,64.2z
					"/>
			</g>
			<g>
				<path class="st2" d="M15.7,71.5C8.1,71.5,0,69,0,64.2c0-4.5,13.7-14.1,21.8-14.1c3.6,0,9.6,1.8,9.6,14.1
					C31.4,69,23.3,71.5,15.7,71.5z M21.8,53.1C14.5,53.1,3.2,62,3,64.3c0,1.7,4.9,4.3,12.7,4.3c7.7,0,12.7-2.5,12.7-4.3
					C28.4,56.9,26.2,53.1,21.8,53.1z"/>
			</g>
		</g>
		<g>
			<g>
				<path class="st0" d="M99.5,64.2c0,3.2,6.3,5.8,14.2,5.8s14.2-2.6,14.2-5.8s-12.5-12.6-20.3-12.6C99.8,51.6,99.5,61,99.5,64.2z"
					/>
			</g>
			<g>
				<path class="st1" d="M99.5,64.2c0,3.2,6.3,5.8,14.2,5.8s14.2-2.6,14.2-5.8s-13.1-1.9-21-1.9S99.5,61,99.5,64.2z"/>
			</g>
			<g>
				<path class="st2" d="M113.7,71.5c-7.6,0-15.7-2.5-15.7-7.3c0-12.3,6-14.1,9.6-14.1c8.1,0,21.8,9.6,21.8,14.1
					C129.4,69,121.3,71.5,113.7,71.5z M107.6,53.1c-4.4,0-6.6,3.7-6.6,11.1c0,1.7,4.9,4.3,12.7,4.3s12.7-2.5,12.7-4.3
					C126.2,62,114.9,53.1,107.6,53.1z"/>
			</g>
		</g>
	</g>
	<g>
		<g>
			<g>
				<ellipse class="st0" cx="42.1" cy="90.3" rx="21.7" ry="6.5"/>
			</g>
			<g>
				<path class="st1" d="M63.8,90.3c0,3.6-9.7,0-21.7,0c-12,0-21.7,3.6-21.7,0c0-3.6,9.7-6.5,21.7-6.5
					C54.1,83.7,63.8,86.6,63.8,90.3z"/>
			</g>
			<g>
				<path class="st2" d="M42.1,98.3c-11.5,0-23.2-2.8-23.2-8s11.6-8,23.2-8c11.5,0,23.2,2.8,23.2,8S53.6,98.3,42.1,98.3z M42.1,85.2
					c-13,0-20.2,3.3-20.2,5s7.1,5,20.2,5s20.2-3.3,20.2-5S55.2,85.2,42.1,85.2z"/>
			</g>
		</g>
		<g>
			<g>
				<ellipse class="st0" cx="87.3" cy="90.3" rx="21.7" ry="6.5"/>
			</g>
			<g>
				<path class="st1" d="M65.6,90.3c0,3.6,9.7,0,21.7,0c12,0,21.7,3.6,21.7,0c0-3.6-9.7-6.5-21.7-6.5C75.3,83.7,65.6,86.6,65.6,90.3
					z"/>
			</g>
			<g>
				<path class="st2" d="M87.3,98.3c-11.5,0-23.2-2.8-23.2-8s11.6-8,23.2-8c11.5,0,23.2,2.8,23.2,8S98.8,98.3,87.3,98.3z M87.3,85.2
					c-13,0-20.2,3.3-20.2,5s7.1,5,20.2,5s20.2-3.3,20.2-5S100.3,85.2,87.3,85.2z"/>
			</g>
		</g>
	</g>
	<g>
		<path class="st3" d="M20.2,1.5c-5.7,7.8-6.8,18.4-2.1,27.5c4.7,9.1,14,14.3,23.6,14.2c5.7-7.8,6.8-18.4,2.1-27.5
			C39.1,6.6,29.8,1.4,20.2,1.5z"/>
	</g>
	<g>
		<path class="st4" d="M20.2,1.5c-5.7,7.8,4.7,16.7,9.4,25.9c4.7,9.1,2.5,15.9,12.1,15.8c5.7-7.8,6.8-18.4,2.1-27.5
			S29.8,1.4,20.2,1.5z"/>
	</g>
	<g>
		<path class="st5" d="M20.2,1.5c-5.7,7.8,4.7,16.7,9.4,25.9c4.7,9.1,2.5,15.9,12.1,15.8c5.7-7.8,3.2-11.7-1.5-20.8
			C35.5,13.2,29.8,1.4,20.2,1.5z"/>
	</g>
	<path class="st2" d="M45.2,15c-4.8-9.4-14.4-15.1-25-15c-0.5,0-0.9,0.2-1.2,0.6c-6.2,8.6-7.1,19.7-2.3,29.1
		c4.8,9.3,14.2,15,24.7,15c0.1,0,0.2,0,0.3,0c0.5,0,0.9-0.2,1.2-0.6C49.1,35.5,50,24.4,45.2,15z M45,24.3c0,0.1,0,0.1,0,0.2
		c0.1,1,0.2,2.1,0.2,3.1c0,0.3,0,0.6,0,0.9c0,0.3,0,0.5,0,0.8c0,0.3-0.1,0.7-0.1,1c0,0.2,0,0.4-0.1,0.6c-0.1,1-0.3,2-0.6,2.9
		c0,0.1,0,0.2-0.1,0.3c-0.1,0.5-0.3,1-0.5,1.5c0,0,0,0,0,0c-0.2,0.5-0.4,1-0.6,1.5c0,0,0,0,0,0c-0.6,1.5-1.5,3-2.4,4.4
		c-4.8-0.2-5.5-2.4-7-7.1c-0.7-2.3-1.5-4.9-3-7.9c-1.3-2.6-3.1-5.1-4.8-7.6C21.9,13,18.2,7.6,21,3c0.5,0,0.9,0,1.4,0.1
		c0.1,0,0.2,0,0.3,0c0.5,0,1,0.1,1.4,0.2c0.1,0,0.2,0,0.2,0c0.5,0.1,1,0.2,1.4,0.3c0.1,0,0.1,0,0.2,0c0.5,0.1,1,0.2,1.5,0.4
		c0,0,0.1,0,0.1,0c0.5,0.1,1,0.3,1.4,0.5c0,0,0.1,0,0.2,0c0.5,0.2,0.9,0.4,1.4,0.6c0.1,0,0.1,0,0.2,0.1c0.4,0.2,0.9,0.4,1.3,0.6
		c0.1,0,0.1,0.1,0.2,0.1c0.4,0.2,0.8,0.5,1.2,0.7c0.1,0,0.1,0.1,0.2,0.1c0.4,0.2,0.7,0.5,1.1,0.7c0.1,0.1,0.2,0.1,0.3,0.2
		c0.3,0.2,0.7,0.5,1,0.8c0.1,0.1,0.2,0.1,0.3,0.2c0.3,0.3,0.6,0.5,0.9,0.8c0.1,0.1,0.2,0.2,0.3,0.3c0.3,0.3,0.5,0.5,0.8,0.8
		c0.1,0.1,0.3,0.2,0.4,0.4c0.2,0.2,0.4,0.5,0.6,0.7c0.2,0.2,0.3,0.4,0.5,0.6c0.2,0.2,0.4,0.5,0.6,0.7c0.1,0.2,0.3,0.4,0.4,0.6
		c0.3,0.4,0.6,0.8,0.8,1.3c0,0,0.1,0.1,0.1,0.1c0.3,0.5,0.6,1,0.8,1.5C43.8,18.9,44.7,21.6,45,24.3z M19.4,28.3
		c-3-5.8-3.5-12.3-1.8-18.3c1.1,3.6,3.6,7.2,6,10.7c1.6,2.4,3.4,4.9,4.6,7.3c1.4,2.7,2.2,5.2,2.8,7.4c0.5,1.7,1,3.3,1.8,4.7
		C27.1,38.1,22.3,33.9,19.4,28.3z"/>
	<g>
		<path class="st3" d="M109.2,1.5c5.7,7.8,6.8,18.4,2.1,27.5c-4.7,9.1-14,14.3-23.6,14.2c-5.7-7.8-6.8-18.4-2.1-27.5
			C90.3,6.6,99.6,1.4,109.2,1.5z"/>
	</g>
	<g>
		<path class="st4" d="M109.2,1.5c5.7,7.8-4.7,16.7-9.4,25.9c-4.7,9.1-2.5,15.9-12.1,15.8c-5.7-7.8-6.8-18.4-2.1-27.5
			C90.3,6.6,99.6,1.4,109.2,1.5z"/>
	</g>
	<g>
		<path class="st5" d="M109.2,1.5c5.7,7.8-4.7,16.7-9.4,25.9c-4.7,9.1-2.5,15.9-12.1,15.8c-5.7-7.8-3.2-11.7,1.5-20.8
			C93.9,13.2,99.6,1.4,109.2,1.5z"/>
	</g>
	<path class="st2" d="M110.4,0.6c-0.3-0.4-0.7-0.6-1.2-0.6c-10.5-0.1-20.2,5.6-25,15c-4.8,9.4-4,20.5,2.3,29.1
		c0.3,0.4,0.7,0.6,1.2,0.6c0.1,0,0.2,0,0.3,0c10.5,0,19.9-5.7,24.7-15C117.5,20.3,116.7,9.2,110.4,0.6z M87.7,14.9
		C87.7,14.9,87.7,14.9,87.7,14.9c0.3-0.5,0.6-1,0.9-1.4c0,0,0,0,0,0c0.6-0.9,1.3-1.8,2.1-2.6c0,0,0,0,0,0c0.4-0.4,0.8-0.8,1.1-1.2
		c0,0,0,0,0,0c0.4-0.4,0.8-0.7,1.2-1.1c0,0,0,0,0,0c0.4-0.3,0.8-0.7,1.3-1c0,0,0.1-0.1,0.1-0.1C95,7.2,95.4,7,95.8,6.7
		c0.1,0,0.2-0.1,0.2-0.1c0.4-0.2,0.8-0.5,1.2-0.7c0.1,0,0.2-0.1,0.3-0.1c0.4-0.2,0.8-0.4,1.2-0.6C98.8,5.1,99,5.1,99.1,5
		c0.4-0.2,0.8-0.3,1.2-0.5c0.1-0.1,0.3-0.1,0.4-0.1c0.4-0.1,0.8-0.3,1.1-0.4c0.1,0,0.3-0.1,0.4-0.1c0.4-0.1,0.8-0.2,1.2-0.3
		c0.2,0,0.3-0.1,0.5-0.1c0.4-0.1,0.8-0.2,1.2-0.2c0.2,0,0.3,0,0.5-0.1c0.4-0.1,0.8-0.1,1.2-0.1c0.1,0,0.3,0,0.4,0
		c0.4,0,0.9-0.1,1.3-0.1c2.7,4.6-0.9,10-5.1,16.1c-1.7,2.5-3.5,5-4.8,7.6c-1.5,2.9-2.3,5.6-3,7.9c-1.4,4.7-2.1,7-7,7.1
		c-1-1.4-1.8-2.9-2.4-4.4c0,0,0-0.1,0-0.1c-2.7-6.6-2.5-14.2,0.9-20.7C87.2,15.9,87.4,15.4,87.7,14.9z M110,28.3
		c-2.9,5.6-7.7,9.8-13.5,11.9c0.7-1.4,1.3-3,1.8-4.7c0.7-2.2,1.4-4.7,2.8-7.4c1.2-2.4,3-4.9,4.6-7.3c2.4-3.5,4.9-7.2,6-10.7
		C113.5,16,113,22.5,110,28.3z"/>
	<g>
		<g>
			<path class="st4" d="M113.9,54.6c0,20.7-22,37.4-49.2,37.4c-27.2,0-49.2-16.8-49.2-37.4c0-20.7,22-45.5,49.2-45.5
				C91.9,9.1,113.9,33.9,113.9,54.6z"/>
		</g>
		<g>
			<path class="st5" d="M113.9,54.6c0,20.7-22,37.4-49.2,37.4c-27.2,0-49.2-16.8-49.2-37.4c0-20.7,22-34.9,49.2-34.9
				C91.9,19.6,113.9,33.9,113.9,54.6z"/>
		</g>
		<g>
			<path class="st0" d="M113.9,54.6c0,20.7-22,37.4-49.2,37.4c-27.2,0-49.2-16.8-49.2-37.4c0-20.7,6.3,18.3,49.2,18.3
				C107.7,72.9,113.9,33.9,113.9,54.6z"/>
		</g>
		<g>
			<path class="st2" d="M64.7,93.5C36.7,93.5,14,76,14,54.6c0-21.3,22.6-47,50.7-47s50.7,25.7,50.7,47C115.4,76,92.7,93.5,64.7,93.5
				z M64.7,10.6c-26.4,0-47.7,24-47.7,44c0,19.8,21.4,35.9,47.7,35.9s47.7-16.1,47.7-35.9C112.4,34.7,91.1,10.6,64.7,10.6z"/>
		</g>
	</g>
	<g>
		<path class="st6" d="M48.5,52.4c0,4.4-3.6,8.1-8.1,8.1c-4.4,0-8.1-3.6-8.1-8.1c0-4.4,3.6-8.1,8.1-8.1C44.9,44.4,48.5,48,48.5,52.4
			z"/>
	</g>
	<g>
		<circle class="st7" cx="36.5" cy="49.8" r="3.3"/>
	</g>
	<path class="st2" d="M40.5,42.9c-3.2,0-6.1,1.6-7.8,4.1c-0.1,0.2-0.2,0.3-0.3,0.5c-0.9,1.5-1.4,3.2-1.4,5c0,5.3,4.3,9.6,9.6,9.6
		c5.3,0,9.6-4.3,9.6-9.6S45.8,42.9,40.5,42.9z M40.5,59c-2.7,0-5.1-1.7-6-4c0.7,0,1.5-0.2,2.5-0.4c0.3,0,0.7-0.1,1-0.2
		c0.8-0.1,1.7-0.3,2.6-0.3c2.4,0,4.6,0.8,6,0.9C45.5,57.3,43.2,59,40.5,59z"/>
	<circle class="st7" cx="36.5" cy="49.8" r="1.8"/>
	<g>
		<path class="st6" d="M97,52.4c0,4.4-3.6,8.1-8.1,8.1s-8.1-3.6-8.1-8.1c0-4.4,3.6-8.1,8.1-8.1C93.4,44.4,97,48,97,52.4z"/>
	</g>
	<g>
		<circle class="st7" cx="84.9" cy="49.8" r="3.3"/>
	</g>
	<path class="st2" d="M88.9,42.9c-3.2,0-6.1,1.6-7.8,4.1c-0.1,0.2-0.2,0.3-0.3,0.5c-0.9,1.5-1.4,3.2-1.4,5c0,5.3,4.3,9.6,9.6,9.6
		c5.3,0,9.6-4.3,9.6-9.6S94.2,42.9,88.9,42.9z M88.9,59c-2.7,0-5.1-1.7-6-4c0.7,0,1.5-0.2,2.5-0.4c0.3,0,0.7-0.1,1-0.2
		c0.8-0.1,1.7-0.3,2.6-0.3c2.4,0,4.6,0.8,6,0.9C94,57.3,91.6,59,88.9,59z"/>
	<circle class="st7" cx="84.9" cy="49.8" r="1.8"/>
	<g>
		<path class="st4" d="M72.3,54.3c0,1-3.4,1.2-7.6,1.2c-4.2,0-7.6-0.2-7.6-1.2c0-1,3.4-3.7,7.6-3.7C68.9,50.6,72.3,53.3,72.3,54.3z"
			/>
	</g>
	<g>
		<path class="st3" d="M55.8,62.4c0,4.9,4,8.9,8.9,8.9c4.9,0,8.9-4,8.9-8.9H55.8z"/>
	</g>
	<g>
		<path class="st2" d="M64.7,72.8c-5.7,0-10.4-4.7-10.4-10.4c0-0.8,0.7-1.5,1.5-1.5h17.8c0.8,0,1.5,0.7,1.5,1.5
			C75.1,68.1,70.4,72.8,64.7,72.8z M57.5,63.9c0.7,3.4,3.7,5.9,7.2,5.9c3.6,0,6.5-2.5,7.2-5.9H57.5z"/>
	</g>
	<g>
		<circle class="st4" cx="64.7" cy="20.7" r="19.2"/>
	</g>
	<g>
		<circle class="st5" cx="64.7" cy="28.3" r="19.2"/>
	</g>
	<path class="st2" d="M64.7,0c-5.3,0-10.2,2-13.9,5.4c-0.1,0.1-0.2,0.1-0.3,0.2c-8.3,7.6-8.9,20.6-1.3,29c3,3.3,7.1,5.2,11.6,5.4
		c0.3,0,0.5,0,0.8,0c4.2,0,8.2-1.5,11.3-4.4c2.7-2.5,4.3-5.8,4.4-9.5c0.2-3.6-1.1-7.1-3.6-9.8c-4.2-4.6-11.3-4.9-15.9-0.7
		c-3.8,3.5-4,9.4-0.6,13.1c0.6,0.6,1.5,0.7,2.1,0.1c0.6-0.6,0.7-1.5,0.1-2.1c-2.3-2.6-2.2-6.5,0.4-8.9c3.3-3.1,8.6-2.8,11.6,0.5
		c1.9,2.1,2.9,4.8,2.8,7.7c-0.1,2.8-1.3,5.5-3.5,7.4c-2.7,2.5-6.2,3.7-9.9,3.6c-3.7-0.2-7-1.7-9.5-4.4c-3-3.2-4.5-7.3-4.6-11.3
		C47,21,47,20.9,47,20.7C47,10.9,54.9,3,64.7,3c9.8,0,17.7,7.9,17.7,17.7c0,0.8,0.7,1.5,1.5,1.5s1.5-0.7,1.5-1.5
		C85.4,9.3,76.1,0,64.7,0z"/>
</g>
</svg>
